Coordinates
version=1
nRows=13
nColumns=34
inDegrees=yes

Units are S.I. units (second, meters, Newtons, ...)
If the header above contains a line with 'inDegrees', this indicates whether rotational values are in degrees (yes) or radians (no).

endheader
time	pelvis_tilt	pelvis_list	pelvis_rotation	pelvis_tx	pelvis_ty	pelvis_tz	hip_flexion_r	hip_adduction_r	hip_rotation_r	knee_angle_r	ankle_angle_r	subtalar_angle_r	mtp_angle_r	hip_flexion_l	hip_adduction_l	hip_rotation_l	knee_angle_l	ankle_angle_l	subtalar_angle_l	mtp_angle_l	lumbar_extension	lumbar_bending	lumbar_rotation	arm_flex_r	arm_add_r	arm_rot_r	elbow_flex_r	pro_sup_r	arm_flex_l	arm_add_l	arm_rot_l	elbow_flex_l	pro_sup_l
      0.00000000	     -7.69831889	     -3.84090898	    -39.08889371	      1.21293036	      1.00135323	      3.59095856	     22.97555126	      1.96887011	      7.19035551	     22.58992362	      7.60450231	     -4.86888956	      0.00000000	     36.32690964	      4.55645336	     -6.07851068	     44.59941380	      7.81509791	     -5.52955938	      0.00000000	     -7.04017624	      6.67010429	     61.57842579	     42.49758885	      1.31739890	     -0.24534467	     43.25155771	    119.74816664	    -14.98230911	     23.50178679	     65.41294177	      7.46641413	     54.54014460
      0.01666670	     -7.72959997	     -3.87397934	    -39.10292959	      1.21266836	      1.00157692	      3.59151348	     22.96109458	      2.07034309	      7.21824193	     22.50016368	      7.53478066	     -4.85969332	      0.00000000	     36.26005080	      4.47382739	     -6.03689859	     44.43767484	      7.83100540	     -5.57053935	      0.00000000	     -6.99834908	      6.55923867	     61.46663198	     42.61758014	      1.31175920	     -0.19427943	     43.34080787	    119.74817918	    -15.00542499	     23.40846554	     65.39630378	      7.34499915	     54.59236631
      0.03333330	     -7.83148509	     -4.00262170	    -39.29406804	      1.21282743	      1.00184519	      3.59235930	     22.59529331	      2.29866694	      7.24659041	     21.90313812	      7.19081673	     -4.87341732	      0.00000000	     35.90446451	      4.21730423	     -6.24350673	     43.84378387	      7.66382938	     -6.01397022	      0.00000000	     -6.83936906	      6.60786837	     61.09116538	     42.75797515	      1.59776455	      0.29033989	     43.91715112	    119.74817918	    -14.98678584	     23.29352263	     65.22566168	      6.87469210	     54.93124344
      0.05000000	     -7.91829368	     -4.18412807	    -39.52456796	      1.21208524	      1.00152479	      3.59172036	     22.65815204	      2.56060056	      7.26524540	     21.93867543	      7.19517998	     -4.89761475	      0.00000000	     35.66556930	      4.02006973	     -6.22976927	     42.99711504	      7.46030444	     -6.02798087	      0.00000000	     -6.84723272	      6.85362006	     60.90683291	     43.02427546	      1.61180170	      0.35622420	     44.25240650	    119.74817918	    -15.07454015	     23.29796170	     65.15937957	      6.78151033	     55.02324142
      0.06666670	     -7.49098974	     -5.38300079	    -39.97703245	      1.21257639	      1.00301983	      3.59047673	     21.07316538	      3.30475892	      7.69944625	     21.06866117	      6.27608211	     -5.30244719	      0.00000000	     34.14159238	      3.45649272	     -5.71345596	     42.04932254	      6.76444220	     -7.07835606	      0.00000000	     -8.03599612	      7.87221759	     61.22482877	     42.75649493	      1.29927004	      0.64443850	     45.72252739	    119.50149242	    -15.02826676	     24.95411333	     37.95355183	      4.10926567	     98.11986688
      0.08333330	     -7.53613490	     -5.47979554	    -40.43721984	      1.21176142	      1.00234477	      3.59045775	     21.28736463	      3.54718820	      7.88583795	     21.37353657	      6.16009530	     -5.11052584	      0.00000000	     33.71808207	      3.19713068	     -5.70501858	     40.86097208	      6.48026009	     -6.97757014	      0.00000000	     -8.10673811	      7.88404257	     60.74109224	     42.73792075	      2.10111514	      1.28347469	     46.60717947	    119.59274818	    -15.10764090	     25.00652463	     38.05902764	      4.06640276	     98.21964378
      0.10000000	     -6.76547798	     -5.35847738	    -41.45154076	      1.21082202	      1.00274749	      3.59174503	     21.19426974	      3.21228209	      8.27726902	     22.14530369	      6.87009250	     -4.03666191	      0.00000000	     32.09577048	      3.30903319	     -6.68812300	     38.63185351	      6.00326150	     -7.59799353	      0.00000000	     -8.84432840	      6.94893542	     61.09093459	     42.77966744	      2.00112070	      3.58842690	     47.95233521	    119.74817918	    -15.02026188	     24.91274496	     38.49958324	      3.62045774	     99.07785364
      0.11666670	     -6.92055847	     -5.60938220	    -41.95059354	      1.21090807	      1.00128869	      3.59220615	     21.66627685	      3.59793068	      8.10898828	     23.12579683	      7.30412511	     -3.44244300	      0.00000000	     31.17644630	      2.98840504	     -6.61005496	     36.85954601	      6.05983650	     -7.98322094	      0.00000000	     -8.99128870	      7.30987184	     61.66895941	     42.26916922	      1.46522835	      4.33384049	     49.58563546	    119.74817918	    -15.39343413	     24.76088552	     38.30794578	      3.02225806	     99.37687394
      0.13333330	     -6.56715859	     -6.35705198	    -42.70209935	      1.21193405	      0.99997214	      3.59229283	     21.68493361	      4.00014754	      7.86397853	     24.78499438	      8.22716467	     -2.32890592	      0.00000000	     29.72851941	      2.76158109	     -6.35518483	     35.68359280	      5.68060593	     -9.25013548	      0.00000000	     -9.75901645	      7.85559217	     62.86384703	     41.50722833	      0.81457375	      3.44372126	     51.08148012	    119.74817918	    -16.14540072	     24.80352897	     37.73819903	      2.63902558	     99.70844095
      0.15000000	     -5.62281984	     -7.43730302	    -43.21513434	      1.21334198	      1.00018944	      3.59185144	     20.71281181	      4.10640564	      7.65575881	     25.94341647	      8.96582416	     -1.07840437	      0.00000000	     28.02389868	      2.65269909	     -6.88503122	     35.42988623	      5.26329290	    -10.34617981	      0.00000000	    -10.90773027	      8.19656083	     63.30384486	     40.76358946	      1.00066347	      1.40294576	     52.77026346	    119.74817918	    -17.02390399	     25.18242540	     37.07897384	      2.75251162	     99.90013706
      0.16666670	     -4.28043441	     -8.46051525	    -43.18526535	      1.21273200	      1.00241283	      3.59121662	     18.97918598	      3.80058093	      7.06749781	     26.01981297	      9.48036263	      0.17186278	      0.00000000	     25.68462189	      2.90890743	     -7.41393704	     34.36050114	      4.65403951	    -11.45291459	      0.00000000	    -12.62369433	      7.61847636	     63.10467090	     40.94106347	      0.95738610	      0.40046524	     54.01170941	    119.74817918	    -17.08273280	     25.64574084	     35.24090008	      2.70742086	    100.12855850
      0.18333330	     -4.28618236	     -8.58775864	    -43.16796369	      1.21012587	      1.00093028	      3.59023423	     19.67275891	      3.93556530	      6.80513180	     27.12147244	      9.44259754	      0.22116255	      0.00000000	     25.30055383	      2.66783151	     -8.08235442	     33.40123637	      4.58690040	    -11.26799621	      0.00000000	    -12.83902921	      7.35452322	     62.84965254	     41.44368207	      0.49654914	      0.72169947	     55.33674861	    119.74817918	    -17.36565163	     25.80854707	     34.90872828	      2.78144690	    100.16050796
      0.20000000	     -3.33528235	     -7.56179226	    -44.27570327	      1.20907476	      0.99845571	      3.59015696	     21.42570636	      2.68956854	      7.48650538	     30.16419497	     10.92812175	      1.65797700	      0.00000000	     24.37742103	      3.78762387	    -10.21489435	     31.49686961	      4.47143344	    -10.32632921	      0.00000000	    -12.82564098	      5.66583769	     63.42184016	     41.45261575	      0.45850239	      1.41289122	     56.96670822	    119.74817918	    -17.89128276	     26.26659323	     33.07547771	      2.60581622	    100.08482802
